<?xml version="1.0" encoding="UTF-8" standalone="no"?>
<!-- Uploaded to: SVG Repo, www.svgrepo.com, Generator: SVG Repo Mixer Tools -->

<svg
   width="800px"
   height="800px"
   viewBox="0 0 1024 1024"
   class="icon"
   version="1.1"
   id="svg23"
   sodipodi:docname="converter.svg"
   inkscape:version="1.3.2 (091e20ef0f, 2023-11-25)"
   xmlns:inkscape="http://www.inkscape.org/namespaces/inkscape"
   xmlns:sodipodi="http://sodipodi.sourceforge.net/DTD/sodipodi-0.dtd"
   xmlns="http://www.w3.org/2000/svg"
   xmlns:svg="http://www.w3.org/2000/svg">
  <defs
     id="defs23" />
  <sodipodi:namedview
     id="namedview23"
     pagecolor="#ffffff"
     bordercolor="#000000"
     borderopacity="0.25"
     inkscape:showpageshadow="2"
     inkscape:pageopacity="0.0"
     inkscape:pagecheckerboard="true"
     inkscape:deskcolor="#d1d1d1"
     inkscape:zoom="1.3875"
     inkscape:cx="400"
     inkscape:cy="400"
     inkscape:window-width="2304"
     inkscape:window-height="1355"
     inkscape:window-x="0"
     inkscape:window-y="0"
     inkscape:window-maximized="1"
     inkscape:current-layer="svg23" />
  <path
     d="M567.323596 114.605532h310.462508v821.160126h-310.462508z"
     fill="#FFFFFF"
     id="path11" />
  <path
     d="M617.285104 114.605532h260.306462v821.160126H617.285104z"
     fill="#E7D0A9"
     id="path12"
     style="fill:#3584e4" />
  <path
     d="M603.287568 114.605532h224.146927v821.160126H603.287568z"
     fill="#FFE4B8"
     id="path13"
     style="fill:#62a0ea" />
  <path
     d="M877.591566 336.225511c-6.415665 0-11.664102-5.248436-11.664102-11.664102v-44.518534c0-6.415665 5.248436-11.664102 11.664102-11.664101 6.415665 0 11.664102 5.248436 11.664101 11.664101v44.518534c0 6.415665-5.24946 11.664102-11.664101 11.664102zM567.323596 411.266066c-6.415665 0-11.664102-5.248436-11.664102-11.664101V114.605532c0-6.415665 5.248436-11.664102 11.664102-11.664101h310.26797c6.415665 0 11.664102 5.248436 11.664101 11.664101v134.332731c0 6.415665-5.248436 11.664102-11.664101 11.664102-6.415665 0-11.664102-5.248436-11.664102-11.664102V126.270658H578.987697v273.331307c0 6.414642-5.24946 11.664102-11.664101 11.664101zM877.591566 947.42976h-310.26797c-6.415665 0-11.664102-5.24946-11.664102-11.664102V425.457117c0-6.415665 5.248436-11.664102 11.664102-11.664102s11.664102 5.248436 11.664101 11.664102v498.64444h286.939767V354.694354c0-6.415665 5.248436-11.664102 11.664102-11.664101 6.415665 0 11.664102 5.248436 11.664101 11.664101v581.071304c0 6.415665-5.24946 11.664102-11.664101 11.664102z"
     fill=""
     id="path14" />
  <path
     d="M634.975795 649.02043c-3.693154 0-6.803718-3.110564-6.803718-6.803718v-63.764507c0-3.693154 3.110564-6.803718 6.803718-6.803718 3.694178 0 6.803718 3.110564 6.803718 6.803718v63.764507c0 3.694178-3.110564 6.803718-6.803718 6.803718z"
     fill="#FFFFFF"
     id="path15" />
  <path
     d="M634.975795 664.573248h-32.854433c-6.415665 0-11.664102-5.248436-11.664101-11.664102 0-6.415665 5.248436-11.664102 11.664101-11.664101h32.854433c6.415665 0 11.664102 5.248436 11.664101 11.664101 0 6.415665-5.248436 11.664102-11.664101 11.664102zM634.975795 451.506807h-32.854433c-6.415665 0-11.664102-5.248436-11.664101-11.664101 0-6.415665 5.248436-11.664102 11.664101-11.664102h32.854433c6.415665 0 11.664102 5.248436 11.664101 11.664102 0 6.415665-5.248436 11.664102-11.664101 11.664101zM634.975795 238.441391h-32.854433c-6.415665 0-11.664102-5.248436-11.664101-11.664102 0-6.415665 5.248436-11.664102 11.664101-11.664102h32.854433c6.415665 0 11.664102 5.248436 11.664101 11.664102 0 6.414642-5.248436 11.664102-11.664101 11.664102zM618.451309 792.490313h-16.329947c-6.415665 0-11.664102-5.248436-11.664101-11.664102s5.248436-11.664102 11.664101-11.664101h16.329947c6.415665 0 11.664102 5.24946 11.664102 11.664101s-5.248436 11.664102-11.664102 11.664102zM618.451309 835.065513h-16.329947c-6.415665 0-11.664102-5.248436-11.664101-11.664102 0-6.415665 5.248436-11.664102 11.664101-11.664102h16.329947c6.415665 0 11.664102 5.248436 11.664102 11.664102 0 6.414642-5.248436 11.664102-11.664102 11.664102zM618.451309 749.916137h-16.329947c-6.415665 0-11.664102-5.248436-11.664101-11.664101s5.248436-11.664102 11.664101-11.664102h16.329947c6.415665 0 11.664102 5.248436 11.664102 11.664102s-5.248436 11.664102-11.664102 11.664101zM618.451309 707.341962h-16.329947c-6.415665 0-11.664102-5.248436-11.664101-11.664102s5.248436-11.664102 11.664101-11.664102h16.329947c6.415665 0 11.664102 5.248436 11.664102 11.664102s-5.248436 11.664102-11.664102 11.664102zM618.451309 579.424896h-16.329947c-6.415665 0-11.664102-5.248436-11.664101-11.664101s5.248436-11.664102 11.664101-11.664102h16.329947c6.415665 0 11.664102 5.248436 11.664102 11.664102s-5.248436 11.664102-11.664102 11.664101zM618.451309 621.999072h-16.329947c-6.415665 0-11.664102-5.248436-11.664101-11.664102s5.248436-11.664102 11.664101-11.664101h16.329947c6.415665 0 11.664102 5.248436 11.664102 11.664101s-5.248436 11.664102-11.664102 11.664102zM618.451309 536.849697h-16.329947c-6.415665 0-11.664102-5.248436-11.664101-11.664102 0-6.415665 5.248436-11.664102 11.664101-11.664101h16.329947c6.415665 0 11.664102 5.248436 11.664102 11.664101 0 6.415665-5.248436 11.664102-11.664102 11.664102zM618.451309 494.275521h-16.329947c-6.415665 0-11.664102-5.248436-11.664101-11.664101s5.248436-11.664102 11.664101-11.664102h16.329947c6.415665 0 11.664102 5.248436 11.664102 11.664102s-5.248436 11.664102-11.664102 11.664101zM618.451309 366.358456h-16.329947c-6.415665 0-11.664102-5.248436-11.664101-11.664102s5.248436-11.664102 11.664101-11.664101h16.329947c6.415665 0 11.664102 5.248436 11.664102 11.664101s-5.248436 11.664102-11.664102 11.664102zM618.451309 408.932632h-16.329947c-6.415665 0-11.664102-5.248436-11.664101-11.664102s5.248436-11.664102 11.664101-11.664102h16.329947c6.415665 0 11.664102 5.248436 11.664102 11.664102s-5.248436 11.664102-11.664102 11.664102zM618.451309 323.78428h-16.329947c-6.415665 0-11.664102-5.248436-11.664101-11.664101 0-6.415665 5.248436-11.664102 11.664101-11.664102h16.329947c6.415665 0 11.664102 5.248436 11.664102 11.664102 0 6.414642-5.248436 11.664102-11.664102 11.664101zM618.451309 281.210104h-16.329947c-6.415665 0-11.664102-5.248436-11.664101-11.664101 0-6.415665 5.248436-11.664102 11.664101-11.664102h16.329947c6.415665 0 11.664102 5.248436 11.664102 11.664102 0 6.414642-5.248436 11.664102-11.664102 11.664101z"
     fill=""
     id="path16" />
  <path
     d="M475.759579 477.945574L113.974819 116.160814v821.160126h821.160126L505.308909 507.494905M261.526933 468.809445l320.182252 320.182252H261.526933V468.809445z"
     fill="#FFE4B8"
     id="path17"
     style="fill:#62a0ea" />
  <path
     d="M867.481722 935.765658h67.653223L113.974819 114.605532v67.458685z"
     fill="#E7D0A9"
     id="path18"
     style="fill:#3584e4" />
  <path
     d="M149.938791 150.570528l-35.963972-35.964996v821.160126h35.963972zM192.707505 893.969635c-3.694178 0-6.803718-3.110564-6.803718-6.803718V823.401411c0-3.693154 3.110564-6.803718 6.803718-6.803718 3.693154 0 6.803718 3.110564 6.803718 6.803718v63.764506c0.001024 3.693154-3.10954 6.803718-6.803718 6.803718z"
     fill="#FFFFFF"
     id="path19" />
  <path
     d="M113.974819 577.091462c6.415665 0 11.664102-5.248436 11.664101-11.664102V142.794119l300.159151 300.15915c4.471307 4.471307 11.85864 4.471307 16.524485 0 4.471307-4.471307 4.471307-11.85864 0-16.524485L122.13928 106.441071c-3.305102-3.305102-8.359-4.276769-12.635768-2.526949-4.276769 1.74982-7.192794 6.026589-7.192795 10.692434v450.821828c0 6.414642 5.248436 11.663078 11.664102 11.663078zM113.974819 642.994865c6.415665 0 11.664102-5.248436 11.664101-11.664102v-39.852689c0-6.415665-5.248436-11.664102-11.664101-11.664101-6.415665 0-11.664102 5.248436-11.664102 11.664101v39.852689c0 6.414642 5.248436 11.664102 11.664102 11.664102z"
     fill=""
     id="path20" />
  <path
     d="M943.299406 927.406658L461.372966 445.480218c-4.471307-4.471307-11.85864-4.471307-16.524485 0-4.471307 4.471307-4.471307 11.85864 0 16.524485l462.096853 462.096854h-781.306414V656.602301c0-6.415665-5.248436-11.664102-11.664101-11.664102-6.415665 0-11.664102 5.248436-11.664102 11.664102v278.968819c0 6.415665 5.248436 11.664102 11.664102 11.664102h821.160126c4.665845 0 8.942614-2.916025 10.692434-7.192795s0.971667-9.330667-2.527973-12.635769z"
     fill=""
     id="path21" />
  <path
     d="M257.055626 456.561729c-4.276769 1.74982-7.192794 6.026589-7.192795 10.692435v320.182251c0 6.415665 5.248436 11.664102 11.664102 11.664102h320.182252c4.665845 0 8.942614-2.916025 10.692434-7.192795s0.777129-9.331691-2.526949-12.635768L269.691395 459.088678c-3.305102-3.498616-8.359-4.471307-12.635769-2.526949z m16.135409 38.881021l280.329563 280.329564h-280.329563v-280.329564z"
     fill=""
     id="path22" />
  <path
     d="M182.987761 712.202345h-33.04897c-6.415665 0-11.664102 5.248436-11.664102 11.664102s5.248436 11.664102 11.664102 11.664102h33.04897c6.415665 0 11.664102-5.248436 11.664102-11.664102s-5.248436-11.664102-11.664102-11.664102zM182.987761 499.135905h-33.04897c-6.415665 0-11.664102 5.248436-11.664102 11.664101s5.248436 11.664102 11.664102 11.664102h33.04897c6.415665 0 11.664102-5.248436 11.664102-11.664102s-5.248436-11.664102-11.664102-11.664101zM149.938791 309.398691h33.04897c6.415665 0 11.664102-5.248436 11.664102-11.664101s-5.248436-11.664102-11.664102-11.664102h-33.04897c-6.415665 0-11.664102 5.248436-11.664102 11.664102s5.24946 11.664102 11.664102 11.664101zM166.463276 839.924872h-16.524485c-6.415665 0-11.664102 5.248436-11.664102 11.664102s5.248436 11.664102 11.664102 11.664102h16.524485c6.415665 0 11.664102-5.248436 11.664102-11.664102s-5.248436-11.664102-11.664102-11.664102zM166.463276 882.693586h-16.524485c-6.415665 0-11.664102 5.248436-11.664102 11.664102 0 6.415665 5.248436 11.664102 11.664102 11.664102h16.524485c6.415665 0 11.664102-5.248436 11.664102-11.664102 0-6.414642-5.248436-11.664102-11.664102-11.664102zM166.463276 797.350697h-16.524485c-6.415665 0-11.664102 5.248436-11.664102 11.664101s5.248436 11.664102 11.664102 11.664102h16.524485c6.415665 0 11.664102-5.248436 11.664102-11.664102s-5.248436-11.664102-11.664102-11.664101zM166.463276 754.776521h-16.524485c-6.415665 0-11.664102 5.248436-11.664102 11.664102 0 6.415665 5.248436 11.664102 11.664102 11.664101h16.524485c6.415665 0 11.664102-5.248436 11.664102-11.664101 0-6.415665-5.248436-11.664102-11.664102-11.664102zM149.938791 650.187659h16.524485c6.415665 0 11.664102-5.248436 11.664102-11.664102s-5.248436-11.664102-11.664102-11.664101h-16.524485c-6.415665 0-11.664102 5.248436-11.664102 11.664101s5.24946 11.664102 11.664102 11.664102zM149.938791 692.956373h16.524485c6.415665 0 11.664102-5.248436 11.664102-11.664102s-5.248436-11.664102-11.664102-11.664101h-16.524485c-6.415665 0-11.664102 5.248436-11.664102 11.664101s5.24946 11.664102 11.664102 11.664102zM149.938791 607.613483h16.524485c6.415665 0 11.664102-5.248436 11.664102-11.664101 0-6.415665-5.248436-11.664102-11.664102-11.664102h-16.524485c-6.415665 0-11.664102 5.248436-11.664102 11.664102 0 6.414642 5.24946 11.664102 11.664102 11.664101zM149.938791 565.038284h16.524485c6.415665 0 11.664102-5.248436 11.664102-11.664102s-5.248436-11.664102-11.664102-11.664102h-16.524485c-6.415665 0-11.664102 5.248436-11.664102 11.664102s5.24946 11.664102 11.664102 11.664102zM149.938791 437.121218h16.524485c6.415665 0 11.664102-5.248436 11.664102-11.664101s-5.248436-11.664102-11.664102-11.664102h-16.524485c-6.415665 0-11.664102 5.248436-11.664102 11.664102s5.24946 11.664102 11.664102 11.664101zM149.938791 479.889932h16.524485c6.415665 0 11.664102-5.248436 11.664102-11.664101 0-6.415665-5.248436-11.664102-11.664102-11.664102h-16.524485c-6.415665 0-11.664102 5.248436-11.664102 11.664102 0 6.415665 5.24946 11.664102 11.664102 11.664101zM149.938791 394.547043h16.524485c6.415665 0 11.664102-5.248436 11.664102-11.664102s-5.248436-11.664102-11.664102-11.664102h-16.524485c-6.415665 0-11.664102 5.248436-11.664102 11.664102s5.24946 11.664102 11.664102 11.664102zM149.938791 351.972867h16.524485c6.415665 0 11.664102-5.248436 11.664102-11.664102s-5.248436-11.664102-11.664102-11.664101h-16.524485c-6.415665 0-11.664102 5.248436-11.664102 11.664101s5.24946 11.664102 11.664102 11.664102z"
     fill=""
     id="path23" />
</svg>
